<svg version="1.1" id="new" xmlns="http://www.w3.org/2000/svg" xmlns:xlink="http://www.w3.org/1999/xlink" x="0px" y="0px" xml:space="preserve" viewBox="0 0 166.081 143.004" fill="#b3b3b3">
    <g>
      <path d="M5.541,23.612c1.462,1.086,2.832,2.637,4.111,4.652l2.146,2.561l0.312,0.66
		c0.632,0.56,1.38,1.407,2.243,2.544l0.885,1.062l4.081,5.084l0.676,1.025c0.794,0.723,1.521,1.646,2.179,2.769
		c0.633,0.56,1.349,1.412,2.146,2.56l0.312,0.659l5.994,7.47l0.938,0.77l0.965,1.547c1.036,0.966,2.058,2.243,3.064,3.83
		l2.509,2.927l0.312,0.659l1.868,2.109c0.632,0.56,1.28,1.424,1.947,2.593l1.868,2.108l0.312,0.659l3.77,4.425
		c0.816,0.86,1.647,2.003,2.491,3.428l3.128,3.607l2.179,2.768L68.931,21.16l35.277-5.267c-0.042,1.382-0.484,2.995-1.325,4.841
		l-0.326,0.48l-0.635,1.669c-0.662,1.722-1.119,3.029-1.376,3.924l-1.573,3.958c-0.25,0.943-0.676,2.032-1.281,3.27l-0.355,0.912
		c-0.185,0.932-0.612,2.021-1.282,3.27l-0.374,1.413c-0.605,1.237-1.236,2.931-1.894,5.078c-0.412,0.778-0.788,1.564-1.129,2.355
		c-0.343,0.792-0.626,1.728-0.853,2.808l-4.201,10.721l-0.972,2.081l-0.34,1.62c-0.628,1.1-1.174,2.494-1.638,4.182l-0.325,0.48
		c-0.185,0.932-0.589,1.946-1.217,3.045l-0.729,2.325c-0.182,0.126-0.269,0.424-0.257,0.896c-0.671,1.249-1.335,2.947-1.993,5.094
		l-2.563,6.539l-0.356,0.912l-0.344,0.981c-0.628,1.099-1.174,2.494-1.638,4.182l-4.491,11.409l0.005,0.639l-2.289,5.143
		l-0.339,1.62l-4.899,12.615l-0.258,0.896l-1.607,3.75l-0.355,0.912l-1.946,5.37c-1.67-1.525-3.037-3.455-4.098-5.793l-1.571-2.157
		l-0.919-1.27l-0.347-0.867l-4.621-7.129l-0.301-0.59c-0.656-0.697-1.283-1.637-1.884-2.817l-1.265-2.137l-0.982-1.046
		c-0.373-1.029-1.083-2.262-2.132-3.701l-0.919-1.27l-1.641-2.573c-0.208-0.438-0.607-1.013-1.196-1.722
		c-0.23-0.578-0.652-1.29-1.265-2.137l-3.801-5.842c-0.406-0.406-0.703-0.974-0.89-1.702l-0.618-0.68l-1.23-1.929l-0.037,4.059
		l0.264,1.592l0.01,3.126l0.313,0.66l0.153,9.503l0.347,0.867l-0.072,3.852l0.303,2.438l0.267,8.347l0.312,0.659l0.271,8.985
		l0.313,0.66l-0.021,4.768L0,141.922l0.175-14.25l0.289-2.536l0.098-4.922l0.339-1.621l0.056-4.56
		c-0.036-1.036,0.067-2.239,0.314-3.607l0.081-5.631l0.341-1.621l0.061-6.978c0.186-0.504,0.286-1.114,0.304-1.829l0.036-5.907
		l0.291-0.688l0.113-7.271l0.321-1.12l0.003-4.267c0.063-1.242,0.19-2.922,0.382-5.041c-0.16-1.773-0.042-4.116,0.356-7.025
		l0.023-2.919c0.048-1.334,0.179-2.992,0.393-4.971l0.115-5.423l0.306-1.828l0.069-5.7l0.287-1.328l0.113-7.271l0.291-0.688
		l0.079-7.479C5.43,24.982,5.531,24.373,5.541,23.612z"></path>
      <path d="M100.953,133.969c-0.208-5.748,4.061-9.938,12.806-12.571c8.896-1.708,15.356,0.4,19.373,6.323
		c0.951,9.418-5.633,14.513-19.748,15.283C106.036,142.657,101.893,139.644,100.953,133.969z M126.898,0.053L128.51,0l7.972,1.668
		l0.55,0.265l5.248,1.123l0.823,0.077c0.85,0.239,1.932,0.462,3.25,0.671l6.72,1.448c0.221,0.106,0.601,0.162,1.142,0.167
		l9.049,2.059l0.921,0.061l1.703,0.5l0.194,1.177c-0.442,0.596-0.696,1.301-0.764,2.117l-0.57,1.445
		c-0.326,0.48-0.537,1.038-0.636,1.669l-0.39,0.705l-9.954,26.747l-0.17,0.81l-3.497,9.467c-0.07,0.392-0.348,0.958-0.832,1.702
		l-0.264,1.466l-0.67,1.462l-0.967,2.72l-0.56,1.515l-2.337,6.075c-0.113,0.541-0.379,1.177-0.798,1.909l-3.357,9.088l-0.07,0.794
		l-1.661,4.043c-0.268,0.424-0.445,0.974-0.536,1.652l-0.5,0.652l-0.502,1.861l-0.56,1.515l-3.531,9.259l-0.374,1.413l-0.39,0.704
		l-2.4,6.299l-0.071,0.793l-2.662,6.556c-0.87,0.05-1.996-0.024-3.379-0.223l-2.26-0.196l-3.146-0.049
		c-0.572-0.189-1.329-0.276-2.271-0.263l-1.767-0.277l-1.119-0.028l-1.634-0.085c-0.152-0.923-0.052-1.936,0.308-3.038l-0.092-0.553
		l0.512-3.641c0.157-1.495,0.414-2.793,0.772-3.896l-0.126-0.761c0.335-1.24,0.559-2.747,0.671-4.52l0.512-3.64l0.274-1.396
		l0.542-4.071l0.014-1.14l0.512-3.64c0.287-0.711,0.39-1.32,0.306-1.829c0.287-0.71,0.412-1.584,0.376-2.622l0.102-1.226
		l0.204-0.602l0.138-2.228c0.287-0.71,0.457-1.521,0.509-2.43l0.748-5.883c0.222-0.7,0.348-1.574,0.377-2.622l0.204-0.602
		l0.138-2.228c0.287-0.71,0.465-1.475,0.532-2.292l-0.021-1.348l1.044-5.932l-0.126-0.761c0.182-0.125,0.238-0.396,0.17-0.811
		c0.206-0.792,0.32-1.734,0.342-2.83c0.091-0.678,0.146-1.149,0.171-1.414c0.022-0.264,0.224-1.092,0.603-2.481l-0.126-0.762
		l0.511-3.64l0.136-1.019l0.615-3.017c-0.13-0.784-0.006-1.658,0.376-2.622l0.066-1.433l0.238-0.395l-0.125-0.761l0.059-0.863
		l0.147-0.949l0.532-2.292c-0.13-0.784-0.005-1.657,0.377-2.622l0.066-1.433l0.14-0.379l-0.126-0.761l0.17-0.81
		c0.265-0.85,0.411-1.799,0.44-2.847c0.023-0.667,0.065-1.136,0.121-1.406c0.058-0.27,0.161-0.56,0.313-0.87l0.241-1.604
		c-0.153-0.922-0.018-1.94,0.406-3.053l-0.092-0.554c0.424-1.919,0.641-3.471,0.646-4.658L126.898,0.053z"></path>
    </g>
  </svg>