 <svg version="1.1" fill="#b3b3b3" id="operators" xmlns="http://www.w3.org/2000/svg" xmlns:xlink="http://www.w3.org/1999/xlink" x="0px" y="0px" xml:space="preserve" viewBox="0 0 1407.083 947.735">
    <path d="M1387.336,425.029l-109.611-266.634l-87.118-113.516L1063.891,0H931.896l-95.037,89.757l-58.08,36.96
	l-124.075,7.92l-64.039-41.183L522.706,29.04H393.35L242.874,60.719L97.677,200.634L0,517.426L15.84,797.26l58.078,129.356
	l102.957,21.12l142.556-92.398l116.158-176.875l81.837-29.04l361.671,10.559l113.516,21.12l88.133,136.255l88.744,101.339
	l52.797,29.04h108.238l76.559-166.316L1387.336,425.029z M398.629,369.591l31.679,92.396l-108.236,11.882l-13.2-96.358
	l-97.677,34.318l-10.561-100.318h108.238l-33.593-126.908l96.952-39.408l-5.281,153.117l129.358-39.599l15.84,113.516
	L398.629,369.591z M1011.094,332.631c-10.561-13.2-59.398,0-59.398,0l-14.521-76.559l29.04-58.078l105.597-13.2l73.919,80.519
	C1145.73,265.313,1021.653,345.831,1011.094,332.631z M1145.73,522.706l-77.879-29.04l-38.278-65.998l76.559-58.078h105.597
	l13.2,76.557L1145.73,522.706z"></path>
  </svg>