 <svg version="1.1" id="all" fill="#b3b3b3" xmlns="http://www.w3.org/2000/svg" xmlns:xlink="http://www.w3.org/1999/xlink" x="0px" y="0px" xml:space="preserve" viewBox="0 0 238.5 230.5">
    <g>
      <polygon points="1,0 62.5,0 62.5,62.5 3.5,59.25 	"></polygon>
      <polygon points="89,5.25 148.5,0 150.7,59.076 87.75,62.5 	"></polygon>
      <polygon points="176.5,0 235.5,3.25 238.5,62.5 176.5,59.25 	"></polygon>
    </g>
    <g>
      <polygon points="235,86.25 176,83 176,145.5 235,142.25 	"></polygon>
      <polygon points="147.75,83 90,83 87.8,142.076 150.75,145.5 	"></polygon>
      <polygon points="62,83 1,80.75 0,145.5 62,142.25 	"></polygon>
    </g>
    <polygon points="149,166.75 145.75,225.75 86.5,228.75 89.75,166.75 "></polygon>
    <polygon points="62.75,225.25 66,166.25 3.5,166.25 6.75,225.25 "></polygon>
    <polygon points="174.75,168 236.25,168 236.25,230.5 177.25,227.25 "></polygon>
  </svg>
