 <svg version="1.1" id="bf-daily-jackpots" fill="#b3b3b3" xmlns="http://www.w3.org/2000/svg" xmlns:xlink="http://www.w3.org/1999/xlink" x="0px" y="0px" xml:space="preserve" viewBox="0 0 220.4 335.3">
    <path d="M143,144.9c-0.5-3.8-0.1,0.2-0.6-3.6c-1.3-9-6.3-13.8-12.5-17l40.3-59.6l-57.9,26.1l4.4-36.3L95.1,82.3L74.5,0
	l-9,78.7L40.4,55l6.8,36.8L0,81.9l36.7,45.2L8.2,142.5l37.4,14.8c0.1,2.5,0.5,4.8,0.8,6.9c0.4,3.5,0-0.7,1.6,7.1
	c-17.7,17.4-28.6,41.2-28.6,67.4c0,53.3,45,96.5,100.5,96.5c55.5,0,100.5-43.2,100.5-96.5C220.4,193.1,187.3,154.9,143,144.9z
	 M55.1,130.8l-24.5-30.1l31.5,6.7l-3.4-18.5l16,15l4.2-36.6l10.5,41.9l10.1-13l-1.7,14.3L136.5,93l-18.4,27.2
	c-3.4-0.9-11.7-1.9-17.3-1.2c-14.9,1.9-27.8,6.9-40.4,15.3c-6,4-9.6,7.8-11.8,11.3l-12-4.7L55.1,130.8z M119.9,324.3
	c-49.4,0-89.5-38.4-89.5-85.5c0-27.2,8.8-47.8,29.6-63.5c0.1,0,0.1-0.1,0.1-0.1c-2.2-10-2.3-8.1-2.8-12.3c-0.1-0.7-0.2-1.3-0.3-2
	c-0.5-3.4-0.7-5.6,0-7.7c1.3-3.7,5.9-7.4,9.5-9.8c10.6-7.1,26-13.6,37.8-13.6c6.8,0,10.3,0.8,11.2,1c11.7,3.2,15.1,5.8,16,11.9
	c0.5,3.7,0-0.8,0.5,2.6c-31.3,2.7-48.2,17-48.2,17c8.2-2.8,16.8-4.6,25.4-5.9c4.1-0.6,8.1-1.1,12.2-1.6c4.8-0.6,9.7-1,14.5-0.4
	c7,0.7,14,2.6,20.5,5.1c6.2,2.4,12,5.5,17.5,9.2c5.3,3.7,10.2,8,14.4,12.8c4.3,4.8,8,10.2,11,15.9c3.1,5.8,5.5,12,7.2,18.3
	c1.7,6.6,2.7,13.4,2.9,20.2c0,0.9,0,1.8,0,2.7C209.4,285.9,169.2,324.3,119.9,324.3z"></path>
    <path d="M146.3,229.1c2.1-2.8,4.1-5.6,6-8.2h32.5l12.7-16.8h-34c7.3-12,10.5-20.2,8.4-22c-0.7-0.4-1.6-0.5-2.3-0.1
	c-2.8,1.1-5.4,2.7-7.8,4.6c-2.2,1.7-4.7,3.8-7.5,6.3c-6.1,5.5-5.9,5.3-0.4,0.6c2.3-2.1,4.8-3.9,7.4-5.4c0.5-0.3,1-0.5,1.5-0.6
	c0.5-0.2,1-0.2,1.5,0.1c1.5,1.3-1.4,7.4-7.2,16.5c-9.4,14.1-19.6,27.6-30.5,40.5l-0.9,1.1c-7,8.4-13.9,16.2-20.1,22.9h40.7V245H182
	l11.9-15.7h-47.6V229.1z"></path>
    <path d="M126.9,230.9c0.8-1.2,1.5-2.5,1.9-3.9c0.5-1.6,0.8-3.4,0.8-5.1c0.1-2.7-0.5-5.4-1.7-7.8c-1.2-2.2-2.9-4.2-5-5.6
	c-2.4-1.6-5-2.7-7.8-3.4c-3.4-0.8-6.8-1.1-10.3-1.1H62.4l-12.7,16.8h55.9c1.3,0,2.6,0.3,3.8,0.9c1.2,0.7,1.8,1.9,1.7,3.3
	c0.2,1.4-0.5,2.7-1.7,3.4c-1.2,0.6-2.5,0.9-3.8,0.9H49.6v39.2h44.5c-5,5.2-14.5,15-21.3,18.9c-0.5,0.3-0.9,0.5-1.4,0.7
	c-0.6,0.4-1.5,0.5-2.2,0.1c-2.4-2,7.2-14.6,7.2-14.6c-7,7.7-14.6,20.4-11.4,23.1c1,0.5,2.1,0.5,3.1-0.1c1.7-0.7,3.3-1.6,4.7-2.7
	c0.7-0.5,1.5-1.1,2.3-1.7c9.3-7.3,18.1-15.3,26.3-23.8c7.3-7.3,15.1-15.8,22.8-25c1.1-1.3,2.1-2.6,3.2-3.9c-0.3-0.3-0.6-0.7-0.9-1
	c-1.6-1.5-3.5-2.7-5.6-3.3c1.1-0.4,2.2-1,3.2-1.7C125.2,233,126.2,232,126.9,230.9 M69.3,252v-8.9h36c1.6-0.1,3.2,0.3,4.6,1.1
	c1,0.8,1.5,2,1.4,3.2c0.1,1.3-0.4,2.5-1.4,3.4c-1.4,0.9-3,1.3-4.6,1.2H69.3z"></path>
  </svg>