<svg version="1.1" id="jackpot" xmlns="http://www.w3.org/2000/svg" fill="#b3b3b3" xmlns:xlink="http://www.w3.org/1999/xlink" x="0px" y="0px" xml:space="preserve" viewBox="0 0 826.121 694.5">
    <g>
      <path d="M75.788,334.995h13.474c0.81,0,1.809,0.101,2.994,0.302l14.971,0.302l3.93,0.302v15.393l-0.281,1.71
		l-0.655,12.374l-0.281,4.326l-0.655,7.546l-0.28,0.905l-0.281,6.539l-0.281,1.006l-0.375,3.622v1.006l-0.561,5.533l-0.281,3.622
		c-0.437,1.543-0.655,3.187-0.655,4.93l-0.28,1.911l-0.281,0.704v1.308l-1.216,8.149v1.308c-0.25,0.201-0.375,0.588-0.375,1.157
		c0,0.57-0.094,1.057-0.281,1.459l-0.281,2.615l-0.281,1.609l-1.216,6.641l-0.374,2.615l-0.281,1.912l-0.281,1.609l-0.936,3.319
		l-0.281,1.61l-4.304,18.008l-0.28,1.308l-0.281,1.309l-4.023,11.771l-0.842,2.313c-0.25,1.074-0.655,2.281-1.216,3.622
		l-0.374,1.006l-1.778,3.622c-0.187,0.604-0.594,1.476-1.216,2.615c-0.625,1.477-1.56,3.22-2.807,5.231
		c-0.999,1.946-1.997,3.689-2.994,5.231l-0.655,0.604c-1.186,2.013-2.807,3.991-4.866,5.936l-0.561,0.604
		c-0.812,0.672-2.028,1.443-3.649,2.314l-0.655,0.302c-0.812,0.872-1.669,1.594-2.573,2.163c-0.905,0.57-2.886,1.493-5.941,2.767
		l-0.936,0.704c-19.462,4.36-39.454,0.872-59.976-10.463L0,501.596l1.871-2.616l0.281-0.604c0.81-0.871,1.622-2.078,2.433-3.622
		l1.216-1.609l0.936-1.308l2.058-3.622l1.591-2.313l0.562-0.604l2.713-4.326l0.936-1.308l1.871-2.918l0.562-0.704l2.152-3.521
		l0.936-1.308l1.216-1.71c18.276,12.006,32.997,12.14,44.163,0.402l2.713-4.93l0.281-1.006c0.436-1.341,1.06-2.649,1.871-3.924
		l0.936-2.012c0.561-0.871,0.966-1.944,1.216-3.22l1.216-3.32c0-0.87,0.187-1.844,0.561-2.917l0.936-5.533l0.281-2.012
		c0.187-1.945,0.405-3.354,0.655-4.226v-2.314l0.281-2.917l0.281-3.019l0.281-3.521c0.249-2.415,0.374-4.393,0.374-5.937v-3.621
		c0.187-1.475,0.281-3.22,0.281-5.231v-8.854c0.374-1.944,0.468-4.427,0.281-7.444L77.66,375.94l-0.281-3.621v-8.552l-0.374-1.006
		v-4.829c0-0.938-0.094-2.045-0.281-3.32l-0.562-16.097L75.788,334.995z"></path>
      <path d="M146.955,344.15c0.623,0.805,1.277,1.979,1.965,3.521l0.374,0.604l5.708,13.481l1.029,2.414
		l1.029,2.013l1.029,2.716c0.249,1.006,0.779,2.181,1.59,3.521l1.123,3.018l0.936,1.812l3.743,9.255l0.655,1.208
		c0.686,1.408,1.154,2.515,1.404,3.319l4.023,9.457c0.436,0.604,0.779,1.408,1.029,2.414l1.31,3.32l1.029,2.112l12.538,29.176
		l0.936,2.112l6.456,15.191c0.249,0.604,0.686,1.408,1.31,2.415l1.029,3.018l0.655,1.106l0.375,1.208
		c0.187,0.201,0.405,0.604,0.655,1.207l6.082,14.386l0.655,1.107l0.375,1.207l3.368,7.444l0.375,1.207l0.936,2.113
		c0.686,1.408,1.153,2.615,1.403,3.622l0.655,0.905l0.655,1.71c0.249,0.604,0.405,1.443,0.468,2.515l-4.21,1.51
		c-1.31,0.269-2.9,0.805-4.772,1.609l-0.842,0.302l-3.088,0.905c-0.187,0.201-0.562,0.337-1.123,0.402l-5.895,2.214l-1.403,0.503
		l-1.403,0.402l-5.614,1.911l-2.713,1.106l-2.059,0.202l-2.62-5.635c-0.625-1.006-0.968-1.71-1.029-2.112l-0.562-0.905l-1.403-2.918
		l-0.655-0.905l-0.655-1.811l-2.62-5.03l-26.479,2.012c-0.812,2.349-1.31,5.166-1.497,8.451l-0.188,0.905l-0.561,4.326
		c-0.126,1.476-0.407,3.254-0.842,5.332l-0.187,1.207l-5.427,0.402l-0.562-0.201l-2.62,0.201h-4.304
		c-1.684-0.065-3.12-0.166-4.304-0.302l-10.012,0.101c-0.125-1.811,0.125-3.855,0.749-6.137l2.152-10.966l0.468-2.213l0.187-1.208
		l1.497-7.847l0.187-1.207l1.497-7.848c0.499-1.475,0.842-3.353,1.029-5.634l0.468-2.213l0.468-1.208v-1.006l0.375-1.811
		l0.749-2.817l0.187-1.609l4.866-25.252l0.655-3.521l4.117-20.624l0.188-1.207l0.468-1.912l0.187-1.207
		c0.124-1.273,0.436-2.749,0.936-4.427l1.872-9.96l0.187-1.308l1.965-9.96l0.655-3.42l4.304-21.328v-0.905l0.468-1.208
		L146.955,344.15z M153.972,421.313l-0.093,2.716l-0.655,3.421l0.094,0.905l-0.468,1.912l-0.655,6.841
		c-0.125,1.006-0.28,1.745-0.468,2.213l0.094,1.207l-1.123,8.451l-0.187,1.509c-0.437,2.281-0.718,4.26-0.842,5.936l-0.562,3.421
		l-0.187,1.811l-0.188,1.912l4.304,0.604h4.304c0.623,0.135,1.403,0.168,2.339,0.101l2.901,0.402c0.936-0.066,1.59,0,1.965,0.201
		l0.842-0.402c-0.25-1.408-0.718-3.019-1.403-4.829l-0.468-1.811l-0.749-3.622c-0.5-1.408-0.905-3.019-1.216-4.829l-0.375-1.509
		l-1.497-5.131l-0.374-1.207l-0.842-4.326l-0.281-0.805l-3.462-13.381l-0.093-0.905L153.972,421.313z"></path>
      <path d="M304.389,347.973l6.55,0.604c6.237,0.201,12.351,2.013,18.339,5.433
		c0.686,0.672,0.966,1.61,0.842,2.817c-1.062,1.544-2.184,3.689-3.369,6.438l-1.029,2.313l-1.029,2.013l-3.649,7.344
		c-0.874,1.343-1.777,3.086-2.713,5.231l-3.743,7.646c-27.197,0.47-46.034,12.844-56.514,37.123
		c-6.488,19.182-3.962,38.096,7.579,56.74c10.354,10.53,23.546,3.589,39.578-20.825l1.31,4.729l0.468,1.006l5.427,20.322
		l0.468,1.308l0.187,1.208l1.31,4.728l0.562,1.007l1.029,4.325c-14.535,15.359-31.658,21.998-51.368,19.92
		c-21.272-2.347-36.055-15.458-44.351-39.336l-0.655-1.812l-1.591-8.752c-0.999-22.938,4.927-45.506,17.778-67.707
		c11.477-22.4,29.348-39.269,53.613-50.604l8.14-2.314l3.743-0.604C302.237,348.41,303.266,348.31,304.389,347.973z"></path>
      <path d="M433.098,331.474h0.654l2.9,8.049l0.281,1.207l9.264,27.364c0.436,0.872,0.654,1.509,0.654,1.911
		l2.619,7.043v2.313l-3.836,5.131c-0.438,0.201-0.998,0.84-1.684,1.911l-4.398,6.138l-1.029,1.308l-0.936,1.207
		c-1.248,1.274-2.744,3.22-4.49,5.835l-3.182,4.125c-1.061,1.544-1.902,2.615-2.525,3.219l-5.146,7.144
		c-0.188,0.201-0.5,0.604-0.936,1.207l-12.164,16.7c0.811,0.872,1.777,2.08,2.9,3.622l2.527,2.816l0.279,0.704
		c0.686,0.604,1.559,1.678,2.621,3.22c1.871,1.879,3.242,3.589,4.115,5.131l1.592,1.911l1.311,1.309
		c0.871,1.073,1.496,1.911,1.871,2.515c0.873,0.872,1.744,1.946,2.619,3.22l1.217,1.308l3.275,4.226l2.807,3.521l1.59,1.912
		l0.654,0.604c1.061,1.073,2.34,2.683,3.838,4.829c0.871,1.073,1.621,1.945,2.244,2.615c-0.811,1.879-2.184,4.024-4.117,6.438
		l-0.654,0.604l-0.936,1.61c-0.25,0.201-0.781,0.839-1.59,1.911l-6.082,8.351l-1.592,2.313l-1.029,1.207l-1.215,1.007
		c-0.875-1.072-1.842-2.582-2.9-4.527l-1.592-2.214l-1.59-2.615c-0.438-0.871-1.186-2.045-2.246-3.521l-0.654-1.308l-4.211-6.438
		l-0.281-0.604l-9.262-14.487l-0.656-0.604l-1.59-2.616l-3.557-5.433l-0.936-1.911l-1.59-2.214c-0.625,2.55-0.719,5.534-0.281,8.954
		v4.527c0.188,0.604,0.281,1.443,0.281,2.515l0.281,12.576c0.248,1.274,0.373,2.784,0.373,4.527l0.281,7.042
		c-0.188,1.274-0.063,2.65,0.375,4.125l0.279,13.179l-6.736,3.924l-0.654,0.604l-7.672,4.527l-1.592,1.308l-0.936,0.302l-4.771,3.22
		h-1.592l-1.029-7.144l-0.561-2.213l-0.375-1.911l-0.279-1.912c-0.25-2.347-0.563-4.392-0.936-6.137
		c-0.25-2.146-0.594-3.855-1.029-5.131l-0.281-2.615l-0.375-2.516c-0.623-2.816-1.029-5.297-1.215-7.444l-0.375-1.911l-0.936-4.829
		c0-1.072-0.219-2.247-0.655-3.521l-0.281-2.516c-0.25-1.743-0.421-2.983-0.515-3.722c-0.093-0.737-0.234-1.542-0.421-2.415
		l-0.655-2.615c-0.25-1.273-0.375-2.347-0.375-3.22l-0.281-2.213l-0.374-1.006c0-1.072-0.187-2.247-0.562-3.521v-1.207
		c-0.437-1.542-0.781-3.486-1.029-5.835l-0.281-1.006l-1.59-9.96c-0.437-1.475-0.749-3.286-0.936-5.433
		c-0.25-1.475-0.421-2.599-0.515-3.37c-0.094-0.771-0.266-1.56-0.515-2.364l-1.872-10.664v-1.309
		c-0.25-0.201-0.374-0.604-0.374-1.207l-0.936-5.533l-0.936-4.829c-0.25-1.273-0.374-2.347-0.374-3.219l-0.281-2.214l-0.281-1.911
		c-0.25-1.273-0.484-2.297-0.702-3.068c-0.219-0.771-0.328-1.693-0.328-2.767c-0.374-1.273-0.561-2.347-0.561-3.22l-0.375-1.207
		l-0.281-2.313l-0.374-1.912l-0.281-2.213c-0.437-1.743-0.655-3.052-0.655-3.924c-0.437-1.475-0.748-3.386-0.936-5.734l-0.374-1.006
		l-0.562-4.427l-0.374-1.006l-0.936-7.043l-0.655-2.313v-3.521c1.31-0.402,2.9-0.704,4.772-0.905l5.427-1.006
		c1.933-0.201,3.602-0.469,5.006-0.805c1.403-0.335,3.165-0.604,5.286-0.805l11.508-1.912l2.246-0.604
		c1.061,0,1.809-0.134,2.246-0.402c1.059,0,2.213-0.201,3.461-0.604l3.557-0.302l2.244-0.302l0.281,9.558
		c0.248,1.342,0.375,2.852,0.375,4.527l0.654,18.31c0.375,2.147,0.469,4.829,0.281,8.048l0.281,1.309l0.373,13.782
		c0.188,1.074,0.281,2.382,0.281,3.924l0.373,1.609l8.891-16.398c0.248-0.267,0.527-0.653,0.842-1.156
		c0.311-0.504,0.592-1.09,0.842-1.761l2.152-4.226l1.684-2.817l5.426-9.355l0.938-1.912l4.771-8.651l0.936-1.61l4.865-8.35
		c0.188-0.268,0.404-0.704,0.654-1.308l1.871-3.22c0.623-0.871,1.154-1.944,1.592-3.22l3.555-5.835L433.098,331.474z"></path>
      <path d="M493.692,344.553c41.229-4.226,64.871,13.85,70.923,54.226l0.28,24.145
		c-10.292,30.518-31.407,44.535-63.344,42.053c-0.749,1.879-1.217,4.192-1.403,6.941c-0.375,1.409-0.655,3.187-0.843,5.332
		l-0.374,0.905l-0.562,3.421l-0.28,1.006v1.51c-0.188,0.201-0.281,0.638-0.281,1.308l-1.497,7.847l-0.28,2.113l-0.281,1.911
		l-0.28,1.609c-0.562,2.482-0.936,4.764-1.123,6.842l-0.654,2.816l-0.281,2.213l-1.123,6.942c-0.998,0.402-2.277,0.604-3.836,0.604
		l-0.842,0.302l-3.182,0.302l-1.777,0.302c-0.812,0-1.778,0.101-2.9,0.302h-1.217l-2.059,0.402l-2.62,0.302
		c-1.122,0.201-2.465,0.302-4.022,0.302v-7.847c-0.188-0.67-0.281-1.509-0.281-2.516v-7.545l-0.374-0.905v-10.664l-0.281-1.609
		v-9.055l-0.28-1.006v-9.96l-0.28-1.006v-9.356l-0.281-2.516v-6.941l-0.28-2.816v-9.055l-0.281-2.214v-8.45
		c-0.187-0.871-0.28-1.911-0.28-3.119l-0.374-18.511c-0.188-0.871-0.281-1.944-0.281-3.22v-7.444l-0.28-2.516v-9.758
		c-0.374-1.475-0.468-3.052-0.281-4.729v-6.237l-0.28-0.906V350.79c1.371-0.604,3.118-1.106,5.239-1.51l0.562-0.402l2.339-0.604
		l1.217-0.302l1.123-0.302l3.274-0.604l1.123-0.302l2.339-0.402c0.188-0.201,0.562-0.302,1.123-0.302l2.994-0.604h1.123
		c1.745-0.201,3.212-0.402,4.397-0.604L493.692,344.553z M541.877,416.082c0.188-18.242-10.604-27.465-32.373-27.666
		c-0.438,1.476-0.655,3.354-0.655,5.634l-0.28,4.427l-0.281,0.905l-0.28,3.521l-0.281,4.326l-0.28,1.912v2.816l-0.281,2.817
		l-0.28,2.213l-0.374,4.024l-0.281,1.911l-0.28,5.936l-0.281,2.516l-0.28,1.308v1.911l-0.28,4.024l-0.281,2.213
		C526.22,442.105,538.571,433.855,541.877,416.082z"></path>
      <path d="M635.406,344.955l10.947,0.402l5.988,2.112l7.579,5.131l5.053,5.433l3.836,5.936l1.403,2.214
		l1.31,3.118l0.749,1.812l0.842,1.911l0.562,0.905c10.791,34.944,7.797,70.961-8.982,108.049
		c-6.612,14.019-16.593,25.588-29.94,34.709c-0.999,0.537-2.278,1.106-3.837,1.71c-1.186,0.537-2.245,0.905-3.181,1.106
		l-4.397,1.308l-12.07-0.402c-0.999-0.269-2.152-0.738-3.462-1.408l-2.246-1.006c-2.683-1.072-5.521-3.019-8.514-5.835l-4.117-4.729
		l-2.246-3.421l-0.842-1.006l-1.871-3.723l-0.562-0.604c-7.361-16.23-10.324-34.406-8.889-54.527l0.28-9.759
		c0.436-1.408,0.717-3.252,0.843-5.533l0.28-0.604l1.123-7.545l0.654-2.113l0.281-1.811l0.748-3.119l0.281-1.207
		c0.623-1.811,1.06-3.521,1.31-5.131l2.246-6.64l0.374-1.207c0.562-1.207,1.184-2.918,1.871-5.131l0.562-0.905l1.871-4.829
		c0.249-0.604,0.686-1.408,1.311-2.415l0.28-0.905l1.217-2.112c0.248-0.604,0.654-1.409,1.216-2.415l0.374-0.905l1.778-3.219
		c0.623-0.806,1.247-1.812,1.871-3.019l4.865-6.841l1.123-1.51c0.997-1.006,1.809-2.012,2.433-3.018l8.327-7.948
		c0.623-0.535,1.403-1.106,2.34-1.71l2.713-1.71l0.562-0.604l4.679-2.616l2.058-0.805l2.34-0.805l1.777-0.302L635.406,344.955z
		 M641.114,407.027c-2.185-3.353-5.365-5.096-9.544-5.231l-4.117,1.61c-10.916,10.462-17.248,24.916-18.993,43.36l-0.375,11.67
		c0.125,1.207,0.155,2.65,0.094,4.326l1.685,9.858c0.374,0.604,0.654,1.409,0.842,2.415c0.562,0.872,1.091,2.112,1.591,3.723
		c1.247,2.079,2.9,4.091,4.959,6.036c1.371,0.671,2.9,1.04,4.585,1.106c2.557-0.335,4.989-1.374,7.298-3.119
		c14.783-17.169,20.116-39.101,16-65.795c-0.313-1.475-0.936-3.252-1.872-5.332c-0.125-0.604-0.468-1.408-1.029-2.414
		L641.114,407.027z"></path>
      <path d="M814.921,350.991h11.135c0.187,2.615-0.032,5.936-0.655,9.96c-0.188,1.342-0.28,2.884-0.28,4.627
		l-0.655,4.326c0,0.873-0.094,1.979-0.28,3.32l-0.655,7.344c-0.188,2.415-0.5,4.394-0.936,5.936v1.007l-22.83,3.621
		c-0.188,0.269-0.547,0.402-1.076,0.402c-0.531,0-1.046,0.051-1.544,0.151c-0.5,0.101-1.062,0.251-1.685,0.452h-1.59
		c-0.999,0.471-2.34,0.705-4.023,0.705c-1.249,0.201-2.185,0.437-2.808,0.704c-0.998,0.201-2.215,0.302-3.648,0.302l-3.088,1.006
		v11.972l-0.374,1.006l-0.281,52.817l-0.28,1.006v24.548l-0.281,2.716v22.938c0,0.872-0.125,1.979-0.374,3.319v10.966l-4.959,0.604
		l-1.497,0.403l-5.239,0.905h-1.311l-1.497,0.402l-1.216,0.302l-2.526,0.302c-0.999,0.469-2.339,0.704-4.023,0.704l-1.777,0.302
		l-0.937,0.402h-4.022c-0.438-2.213-0.655-4.997-0.655-8.35l-0.281-1.309v-3.018c-0.25-0.871-0.374-1.978-0.374-3.32
		c0-1.341-0.094-2.347-0.28-3.018l-0.281-6.942c-0.187-1.14-0.28-2.581-0.28-4.325l-0.374-1.007v-3.621
		c-0.188-0.871-0.281-1.978-0.281-3.32l-0.28-2.716l-0.374-6.238c-0.375-2.279-0.562-5.063-0.562-8.35l-0.375-2.717l-0.28-2.615
		c0.188-2.013,0-4.795-0.562-8.351l-0.374-7.545l-0.281-2.415l-0.654-10.966c-0.375-2.213-0.562-4.962-0.562-8.249l-0.374-1.308
		c-0.188-2.48-0.281-4.93-0.281-7.345l-0.28-2.012l-0.281-5.634l-0.374-2.717l-0.562-10.966l-1.591-0.905l-4.959,0.905h-0.936
		c-1.436,0.471-3.087,0.704-4.959,0.704l-1.497,0.302l-2.151,0.403l-1.217,0.302l-2.526,0.302l-6.736,1.006L712,405.519
		l-1.591,0.302l-1.872,0.302l-2.151,0.302l-1.871,0.402l-2.152,0.302l-6.176,1.006c-0.374-1.542-0.687-3.554-0.936-6.036
		l-0.28-0.905l-0.655-4.729l-0.28-2.313l-0.281-1.609l-0.374-1.409c-0.562-3.285-0.968-6.137-1.217-8.551
		c-0.187-1.61-0.327-2.682-0.421-3.22c-0.093-0.536-0.203-1.14-0.327-1.811c-0.126-0.67-0.28-1.341-0.468-2.013l-0.655-5.634
		l-0.562-1.609l-0.28-4.024l-0.655-2.716v-3.622c1.621-0.402,3.462-0.503,5.521-0.302l2.246-0.302l30.596-1.408l0.562-0.302
		l11.134-0.302l0.937-0.402c2.494,0.269,4.552,0.168,6.175-0.303l18.526-0.704l0.654-0.302l17.871-0.604l0.655-0.402l11.789-0.302
		c0.623-0.201,1.435-0.302,2.433-0.302L814.921,350.991z"></path>
    </g>
    <g>
      <path d="M154.891,314l-69-74l106-8c0,0-24-148-32-147s155,91,155,91l136-176l85,166l132-69l-25,143l58-21
		l-37,95H154.891z"></path>
    </g>
    <g>
      <path d="M663.891,553.5l69,33.229l-106,3.592c0,0,24,66.459,32,66.01s-155-40.863-155-40.863l-136,79.032
		l-85-74.541l-132,30.984l25-64.213l-58,9.43l37-42.659H663.891z"></path>
    </g>
  </svg>