 <svg version="1.1" id="poker" fill="#b3b3b3" xmlns="http://www.w3.org/2000/svg" xmlns:xlink="http://www.w3.org/1999/xlink" x="0px" y="0px" xml:space="preserve" viewBox="0 0 657 667.5">
    <polygon points="501,79.5 570,345 657,154.5 "></polygon>
    <path d="M447,0L0,82.5l208.5,585l399-76.5L447,0z M361.459,407.143l45.874,45.909L302.01,474.781
	l21.79-55.296l0.905-57.952l-23.113,54.266l-51.341,19.543l-52.352-28.849l-12.63-51.485l26.789-49.705l48.246-4.1l31.91,8.177
	l4.57-14.635l-48.821-31.201l-15.571-52.075l29.138-38.526l52.072-7.923l39.702,30.904l14.99,32.071l-16.785,45.591l2.936,15.887
	l33.25-20.874l48.538,2.078l34.402,42.08l4.103,40.598L450.6,389.821l-50.011,5.276l-52.054-37.968L361.459,407.143z"></path>
  </svg>