<svg version="1.1" id="slots" fill="#b3b3b3" xmlns="http://www.w3.org/2000/svg" xmlns:xlink="http://www.w3.org/1999/xlink" x="0px" y="0px" xml:space="preserve" viewBox="0 0 542 295.907">
    <path d="M0,4.907l25,285l133,6l9-280L0,4.907z M123.634,99.618l-2.633,9.287
	c-0.391,1.316-0.78,2.463-1.17,3.438l-0.22,1.097l-1.463,4.753c-0.146,0.731-0.414,1.536-0.804,2.414l-1.316,4.973l-0.512,1.243
	l-5.704,19.306c-0.099,0.684-0.342,1.463-0.731,2.34l-2.633,9.068c-0.146,0.731-0.415,1.536-0.805,2.413
	c-0.098,0.878-0.391,1.95-0.877,3.218l-2.486,8.264l-0.22,0.805l-1.097,3.729l-0.22,0.804l-2.048,6.729l-0.219,0.877l-0.366,1.316
	c-0.244,0.585-0.365,1-0.365,1.243l-1.097,3.729l-0.586,1.683l-0.585,1.975l-0.95,3.437l-0.366,0.878l-2.267,7.605
	c-0.146,0.683-0.391,1.535-0.731,2.56l-1.316,4.753l-0.438,0.878l-0.365,1.755c-2-0.293-4.194-1.17-6.582-2.633l-4.534-1.901
	l-1.901-1.097l-0.95-0.438c-0.878-0.439-1.634-0.731-2.267-0.878l-0.512-0.438l-9.653-4.315l-0.951-0.657
	c-1.658-0.293-3.243-1.146-4.753-2.56l2.706-8.045c0.097-0.146,0.207-0.402,0.329-0.768c0.122-0.365,0.183-0.67,0.183-0.914
	l1.536-4.168l0.585-1.901l0.512-1.316l0.219-1.098c0.487-0.975,0.925-2.267,1.316-3.875l3.437-9.727l0.366-1.535l0.585-1.463
	l1.316-4.169l0.365-0.658l1.901-5.996l0.512-1.536l0.585-1.974c0.39-0.536,0.633-1.243,0.731-2.121l0.585-1.536l3.802-11.262
	l0.366-0.877l0.95-3.218l0.585-1.536c0.341-1.413,0.951-3.218,1.828-5.411c0.293-0.536,0.487-1.243,0.585-2.121l0.366-0.658
	l2.852-8.849l0.366-0.658l-2.268-0.438h-1.097l-0.365-0.22h-1.17c-0.146-0.146-0.392-0.219-0.731-0.219l-2.633-0.439
	c-0.878,0-1.901-0.146-3.071-0.438l-1.097-0.22c-1.122,0-2.073-0.146-2.852-0.438H70.03l-0.951-0.22
	c-1.415-0.243-2.609-0.365-3.583-0.365l-0.585-0.22l-3.803-0.438l-1.316-0.22l-0.951-0.219l-1.097-0.22l-1.316-0.22l-1.536-0.219
	h-1.097l-0.439-0.22l-2.047-0.219l-1.536-0.22l-0.146-2.413l-0.219-1.463l-0.146-1.536l-0.219-1.535l-0.219-1.243l-0.366-2.194
	c0-0.731-0.049-1.243-0.146-1.535v-0.805c-0.244-0.731-0.365-1.682-0.365-2.852l-0.22-0.878v-2.34h7.167l0.585,0.219h3.583
	l0.951,0.22h3.364l1.316,0.22h2.633l0.585,0.219l7.386,0.146l1.098,0.22h3.583l0.438,0.219l7.532,0.22l1.316,0.22h3.364l0.365,0.219
	h3.438l1.535,0.22h2.999l1.316,0.22l5.85,0.219l1.536,0.22h3.729l0.585,0.22h3.218c0.633,0.146,1.39,0.219,2.267,0.219l5.631,0.22
	C124.998,95.328,124.511,97.424,123.634,99.618z"></path>
    <path d="M342.635,20.848L193,30.907l-18,253l177-5L342.635,20.848z M299.488,93.372l-1.753,9.493
	c-0.266,1.347-0.547,2.525-0.843,3.532l-0.116,1.112l-1.012,4.869c-0.076,0.742-0.269,1.568-0.575,2.479l-0.846,5.074l-0.393,1.286
	l-3.875,19.754c-0.034,0.69-0.204,1.488-0.51,2.398l-1.774,9.275c-0.077,0.742-0.27,1.568-0.576,2.478
	c-0.015,0.883-0.207,1.978-0.572,3.286l-1.703,8.46l-0.144,0.822l-0.743,3.816l-0.144,0.821l-1.41,6.89l-0.136,0.894l-0.242,1.345
	c-0.188,0.605-0.27,1.03-0.247,1.272l-0.743,3.816l-0.426,1.73l-0.398,2.021l-0.625,3.51l-0.283,0.908l-1.546,7.784
	c-0.082,0.693-0.245,1.565-0.489,2.617l-0.866,4.855l-0.355,0.915l-0.2,1.781c-2.019-0.105-4.285-0.773-6.799-2.006l-4.692-1.469
	l-1.996-0.914l-0.987-0.348c-0.915-0.355-1.695-0.575-2.339-0.662l-0.551-0.389l-10.014-3.394l-1.008-0.565
	c-1.678-0.137-3.336-0.837-4.972-2.104l1.942-8.263c0.083-0.154,0.168-0.42,0.255-0.795c0.087-0.375,0.12-0.684,0.097-0.927
	l1.139-4.293l0.405-1.948l0.387-1.359l0.116-1.113c0.394-1.016,0.709-2.343,0.948-3.981l2.513-10.005l0.221-1.563l0.446-1.511
	l0.921-4.274l0.302-0.69l1.333-6.148l0.366-1.577l0.398-2.02c0.338-0.57,0.514-1.297,0.53-2.18l0.439-1.584l2.733-11.568
	l0.283-0.907l0.645-3.292l0.439-1.584c0.207-1.439,0.646-3.293,1.314-5.558c0.242-0.561,0.369-1.283,0.384-2.167l0.303-0.69
	l2.012-9.076l0.303-0.69l-2.299-0.225l-1.092,0.102l-0.384-0.185l-1.165,0.109c-0.159-0.131-0.41-0.181-0.749-0.149l-2.662-0.191
	c-0.874,0.082-1.907,0.033-3.099-0.149l-1.113-0.116c-1.117,0.105-2.077,0.049-2.881-0.17l-1.092,0.102l-0.967-0.13
	c-1.431-0.11-2.632-0.12-3.602-0.029l-0.603-0.164l-3.827-0.081l-1.331-0.096l-0.967-0.129l-1.112-0.116l-1.331-0.096l-1.549-0.074
	l-1.092,0.103l-0.458-0.178l-2.059-0.026l-1.549-0.075l-0.371-2.389l-0.355-1.436l-0.289-1.516l-0.362-1.508l-0.334-1.217
	l-0.569-2.151c-0.068-0.728-0.165-1.233-0.289-1.515l-0.075-0.801c-0.311-0.705-0.521-1.64-0.63-2.805l-0.301-0.854l-0.219-2.33
	l7.136-0.67l0.603,0.163l3.567-0.335l0.967,0.13l3.35-0.314l1.331,0.096l2.621-0.246l0.603,0.163l7.367-0.544l1.113,0.116
	l3.567-0.335l0.457,0.177l7.52-0.485l1.331,0.096l3.35-0.314l0.384,0.184l3.422-0.321l1.549,0.075l2.986-0.28l1.331,0.096
	l5.844-0.329l1.55,0.075l3.713-0.349l0.603,0.164l3.204-0.301c0.644,0.086,1.404,0.088,2.277,0.006l5.627-0.308
	C300.445,88.973,300.156,91.106,299.488,93.372z"></path>
    <path d="M355.56,0L373,270.907l151,21l18-253L355.56,0z M497.979,116.665l-3.768,8.887
	c-0.551,1.258-1.081,2.347-1.589,3.265l-0.354,1.061l-2.043,4.534c-0.235,0.708-0.602,1.473-1.098,2.295l-1.925,4.77l-0.662,1.17
	l-8.062,18.446c-0.183,0.666-0.521,1.409-1.017,2.231l-3.741,8.67c-0.236,0.708-0.603,1.473-1.099,2.294
	c-0.206,0.859-0.63,1.886-1.271,3.084l-3.496,7.89l-0.318,0.771l-1.552,3.564l-0.318,0.77l-2.869,6.421l-0.326,0.843l-0.527,1.261
	c-0.315,0.55-0.487,0.947-0.517,1.188l-1.552,3.564l-0.791,1.597l-0.826,1.886l-1.371,3.292l-0.473,0.826l-3.195,7.264
	c-0.23,0.659-0.579,1.475-1.044,2.449l-1.898,4.552l-0.544,0.817l-0.581,1.696c-1.948-0.54-4.016-1.683-6.203-3.432l-4.262-2.451
	l-1.75-1.325l-0.888-0.553c-0.816-0.545-1.531-0.929-2.14-1.153l-0.454-0.499l-9.041-5.483l-0.862-0.77
	c-1.609-0.497-3.075-1.54-4.398-3.131l3.686-7.646c0.114-0.132,0.255-0.373,0.422-0.721c0.166-0.347,0.265-0.642,0.295-0.884
	l2.042-3.944l0.817-1.814l0.672-1.242l0.354-1.062c0.604-0.906,1.2-2.134,1.788-3.681l4.621-9.223l0.554-1.478l0.762-1.379
	l1.825-3.973l0.444-0.608l2.633-5.713l0.699-1.46l0.826-1.885c0.453-0.483,0.783-1.155,0.99-2.014l0.772-1.451l5.174-10.701
	l0.473-0.825l1.343-3.075l0.772-1.451c0.514-1.36,1.344-3.074,2.487-5.142c0.357-0.496,0.638-1.173,0.844-2.032l0.445-0.608
	l3.931-8.425l0.445-0.608l-2.195-0.717l-1.088-0.136l-0.335-0.263l-1.161-0.146c-0.127-0.163-0.361-0.266-0.698-0.308l-2.558-0.764
	c-0.871-0.109-1.868-0.381-2.993-0.817l-1.061-0.355c-1.113-0.14-2.038-0.402-2.775-0.79l-1.088-0.137l-0.916-0.336
	c-1.373-0.417-2.543-0.687-3.51-0.808l-0.553-0.291l-3.719-0.908l-1.279-0.382l-0.916-0.335l-1.061-0.354l-1.279-0.382l-1.496-0.408
	l-1.089-0.137l-0.408-0.273l-2.004-0.472l-1.496-0.409l0.155-2.413l-0.036-1.479l0.046-1.542l-0.026-1.551l-0.063-1.261l-0.09-2.223
	c0.091-0.726,0.106-1.24,0.046-1.541l0.1-0.798c-0.151-0.756-0.153-1.714-0.008-2.875l-0.109-0.898l0.291-2.322l7.111,0.892
	l0.553,0.29l3.555,0.446l0.916,0.336l3.338,0.419l1.278,0.382l2.612,0.328l0.553,0.29l7.31,1.065l1.062,0.355l3.555,0.446
	l0.408,0.272l7.446,1.155l1.279,0.382l3.338,0.419l0.335,0.263l3.411,0.428l1.496,0.409l2.976,0.373l1.279,0.382l5.777,0.945
	l1.497,0.409l3.7,0.464l0.553,0.291l3.193,0.4c0.61,0.223,1.352,0.39,2.222,0.499l5.56,0.919
	C499.867,112.578,499.122,114.597,497.979,116.665z"></path>
  </svg>
  