<svg xmlns="http://www.w3.org/2000/svg" xmlns:xlink="http://www.w3.org/1999/xlink" version="1.1" id="Layer_1" x="0px" y="0px" viewBox="0 0 754.763 129.605" style="enable-background:new 0 0 754.763 129.605;" xml:space="preserve" width="754.763"  height="129.605" >
<style type="text/css">
	.st0{fill:#FFFFFF;}
	.st1{fill:#0A0B0C;}
</style>
<g>
	<g>
		<path class="st0" d="M729.388,6.786h-68.635v122.812h68.635c14.009,0,25.375-11.406,25.375-25.475V32.261    C754.763,18.192,743.397,6.786,729.388,6.786z"/>
		<rect x="562.887" y="6.786" class="st0" width="92.758" height="122.812"/>
		<rect x="465.002" y="6.786" class="st0" width="92.758" height="122.812"/>
		<rect x="367.137" y="6.786" class="st0" width="92.758" height="122.812"/>
		<path class="st0" d="M273.264,16.798c-1.321-2.367-3.242-3.968-4.68-4.701c-5.966-3.042-15.203-4.729-26.447-4.879    c-11.245-0.146-15.783-0.453-26.676-0.127c-10.891,0.327-20.528,0.908-28.913,1.74c-8.383,0.834-13.272,2.468-14.728,3.836    c-1.004,0.655-1.643,3.112-1.919,7.367c-0.276,4.258-0.546,4.262-0.346,9.529c0.03,0.804,0.102,1.586,0.143,2.384    c-27.571-19.722,8.719-30.348-7.662-31.868c-12.651-1.194-51.885,11.192-63.903,32.142c-0.732-2.687,2.924-20.123-4.006-23.367    c-3.87-1.812-11.305-1.707-17.613-1.863c-6.524-0.163-12.9,0.08-15.577,0.401c-5.611,0.67-6.676,0.763-7.503,9.538    c-0.282,2.992-0.215,5.942-0.332,8.425l-3.966,0.06c-0.098-2.011-0.567-6.503-0.78-8.598c-0.446-4.376-0.97-9.162-6.304-9.594    C36.862,6.8,20.969,6.695,11.305,9.238c-3.474,0.914-6.258,2.032-9.056,4.735c-6.104,4.8-2.997,30.267-2.582,39.649    C-0.278,54.886-0.159,56.145,0,57.4l7.332,57.745c0,8.239,6.222,14.392,16.981,14.392l212.567,0.068    c10.76,0,14.236-5.825,14.236-14.065l3.237-38.074c0.554-0.033,10.278-0.431,13.668-0.581v27.238    c0,14.069,11.366,25.475,25.375,25.475h68.635V6.786h-68.635C285.184,6.786,277.903,10.722,273.264,16.798z"/>
	</g>
	<g>
		<path class="st1" d="M643.286,30.433c-4.928-0.298-11.247-0.497-18.917-0.596c-7.69-0.08-15.241-0.02-22.673,0.159    c-7.452,0.199-14.029,0.537-19.752,1.014s-9.081,1.113-10.075,1.888c-0.696,0.377-1.133,1.808-1.312,4.252    c-0.199,2.444-0.219,5.186-0.08,8.227c0.139,3.04,0.417,6.001,0.874,8.902c0.437,2.881,0.994,4.987,1.649,6.299    c0.378,0.815,2.385,1.45,6.061,1.868c3.676,0.437,8.028,0.695,13.115,0.795c0.576,9.717,1.431,19.295,2.543,28.773    s2.365,14.526,3.776,15.142c1.331,0.596,3.318,0.974,5.922,1.192c2.603,0.199,5.226,0.258,7.889,0.159    c2.663-0.119,5.047-0.377,7.173-0.775c2.126-0.417,3.378-0.974,3.756-1.649c0.994-1.312,1.808-6.438,2.424-15.4    s0.974-18.282,1.073-27.959c3.597-0.139,6.836-0.298,9.717-0.477c2.881-0.199,4.968-0.397,6.279-0.596    c1.391-0.1,2.583-1.769,3.577-4.988c0.974-3.219,1.57-6.756,1.768-10.591c0.199-3.835-0.06-7.372-0.775-10.591    C646.585,32.261,645.253,30.572,643.286,30.433z"/>
		<path class="st1" d="M514.263,36.116c-9.498-0.835-17.844,1.768-25.038,7.829c-7.174,6.061-11.486,13.552-12.936,22.494    c-1.55,9.598,0.556,18.361,6.319,26.27s13.671,12.698,23.706,14.367c10.432,1.729,19.553-0.397,27.422-6.378    c7.849-5.981,12.598-13.85,14.208-23.627c1.768-10.87-0.537-20.169-6.915-27.899C534.671,41.461,525.748,37.109,514.263,36.116z     M520.562,73.791c-0.338,2.047-1.212,3.795-2.643,5.266c-1.431,1.47-3.219,2.325-5.345,2.543c-3.1,0.377-5.703-0.557-7.809-2.802    s-2.921-4.809-2.424-7.73c0.377-2.404,1.55-4.391,3.537-5.981c1.987-1.57,4.272-2.146,6.875-1.709    c2.762,0.477,4.868,1.649,6.299,3.537C520.502,68.824,520.999,71.109,520.562,73.791z"/>
		<path class="st1" d="M442.011,81.144c-0.775-3.179-1.768-4.968-3.001-5.385c-0.854-0.258-2.444-0.318-4.789-0.179    c-2.325,0.159-4.749,0.298-7.273,0.437c-2.524,0.139-4.809,0.159-6.836,0.08c-2.047-0.08-3.179-0.517-3.418-1.312    c-0.179-0.477-0.298-2.623-0.398-6.458c-0.079-3.815-0.159-8.087-0.219-12.817c-0.079-4.729-0.159-9.299-0.238-13.691    c-0.079-4.372-0.219-7.372-0.378-9.002c-0.139-0.993-1.808-1.748-4.968-2.305c-3.179-0.556-6.637-0.815-10.412-0.795    s-7.253,0.358-10.432,0.993c-3.199,0.656-4.868,1.689-4.988,3.1c-0.278,2.365-0.457,7.193-0.497,14.486    c-0.06,7.313,0.04,15.003,0.258,23.09c0.219,8.107,0.656,15.519,1.292,22.276c0.616,6.756,1.53,10.75,2.683,11.982    c1.172,1.232,4.233,2.047,9.22,2.464c4.968,0.417,10.353,0.576,16.195,0.517c5.822-0.06,11.346-0.298,16.573-0.695    c5.226-0.398,8.723-0.815,10.472-1.252c1.172-0.278,1.947-1.967,2.365-5.067c0.417-3.1,0.497-6.498,0.278-10.194    C443.283,87.741,442.786,84.303,442.011,81.144z"/>
		<path class="st1" d="M336.145,62.628c-4.113-3.02-9.638-5.226-16.493-6.637c-0.695-0.159-1.431-0.298-2.166-0.417    c-0.656-0.1-1.292-0.219-1.908-0.338s-1.192-0.219-1.709-0.318c-4.829-0.994-5.921-2.405-3.279-4.233    c2.643-1.808,4.809-2.047,6.518-0.715c0.695,0.557,1.053,1.133,1.073,1.749c0,0.616,0.378,1.192,1.093,1.709    c0.238,0.179,0.517,0.338,0.795,0.437c0.378,0.119,0.755,0.159,1.172,0.119c1.153-0.04,2.901-0.258,5.226-0.676    c2.345-0.398,4.63-1.014,6.856-1.848c2.226-0.815,4.074-1.848,5.564-3.1s1.987-2.762,1.47-4.511    c-1.331-4.531-3.756-8.147-7.273-10.87c-3.517-2.722-7.471-4.55-11.843-5.444c-4.391-0.914-8.922-0.914-13.592,0    c-4.65,0.894-8.803,2.702-12.439,5.425c-6.2,4.61-9.657,10.512-10.333,17.685c-0.477,5.306,0,9.578,1.471,12.797    c1.451,3.219,3.458,5.763,6.041,7.611c3.557,2.643,7.332,4.272,11.307,4.868c3.974,0.596,7.968,1.471,11.982,2.643    c1.669,0.477,2.703,1.093,3.08,1.848c0.735,1.61,0.238,2.762-1.451,3.418c-1.709,0.676-3.199,0.755-4.451,0.238    c-1.073-0.417-1.788-1.053-2.166-1.908c-0.139-0.238-0.219-0.477-0.258-0.715c-0.298-1.232-1.59-2.186-3.855-2.861    c-2.265-0.656-4.809-0.994-7.611-0.994c-1.709,0.04-3.497,0.199-5.385,0.517c-1.868,0.298-3.557,0.814-5.107,1.53    c-3.497,1.59-4.928,3.815-4.312,6.697c1.431,6.1,5.008,11.147,10.75,15.162c6.637,4.729,14.526,6.637,23.666,5.743    c9.141-0.914,16.394-4.471,21.739-10.671c4.511-5.246,6.359-11.187,5.524-17.824C345.007,72.106,341.768,66.741,336.145,62.628z"/>
		<path class="st1" d="M738.578,78.743c-0.835-6.637-4.074-12.002-9.697-16.115c-4.113-3.02-9.638-5.226-16.493-6.637    c-0.695-0.159-1.431-0.298-2.166-0.417c-0.656-0.1-1.292-0.219-1.908-0.338s-1.192-0.219-1.709-0.318    c-4.829-0.994-5.922-2.405-3.279-4.233c2.643-1.808,4.809-2.047,6.518-0.715c0.695,0.557,1.053,1.133,1.073,1.749    c0,0.616,0.378,1.192,1.093,1.709c0.238,0.179,0.517,0.338,0.795,0.437c0.378,0.119,0.755,0.159,1.172,0.119    c1.153-0.04,2.901-0.258,5.226-0.676c2.345-0.398,4.63-1.014,6.856-1.848c2.226-0.815,4.074-1.848,5.564-3.1    c1.49-1.252,1.987-2.762,1.471-4.511c-1.331-4.531-3.756-8.147-7.273-10.87c-3.517-2.722-7.471-4.55-11.843-5.444    c-4.391-0.914-8.922-0.914-13.592,0c-4.65,0.894-8.803,2.702-12.439,5.425c-6.2,4.61-9.657,10.512-10.333,17.685    c-0.477,5.306,0,9.578,1.471,12.797c1.451,3.219,3.458,5.763,6.041,7.611c3.557,2.643,7.333,4.272,11.307,4.868    c3.974,0.596,7.968,1.471,11.982,2.643c1.669,0.477,2.703,1.093,3.08,1.848c0.735,1.61,0.238,2.762-1.451,3.418    c-1.709,0.676-3.199,0.755-4.451,0.238c-1.073-0.417-1.788-1.053-2.166-1.908c-0.139-0.238-0.219-0.477-0.258-0.715    c-0.298-1.232-1.59-2.186-3.855-2.861c-2.265-0.656-4.809-0.994-7.611-0.994c-1.709,0.04-3.497,0.199-5.385,0.517    c-1.868,0.298-3.557,0.814-5.107,1.53c-3.497,1.59-4.928,3.815-4.312,6.697c1.431,6.1,5.008,11.147,10.75,15.162    c6.637,4.729,14.526,6.637,23.667,5.743c9.141-0.914,16.394-4.471,21.739-10.671C737.564,91.322,739.412,85.38,738.578,78.743z"/>
		<path class="st1" d="M82.621,31.204c-3.271-1.071-6.84-1.645-10.686-1.744c-3.826-0.099-7.355,0.257-10.547,1.09    c-3.192,0.833-4.838,2.121-4.937,3.846c-0.198,2.855-0.317,6.225-0.337,10.111c-0.02,3.906,0.04,8.01,0.178,12.371    c-3.152,0.059-6.186,0.158-9.06,0.297c-0.079-4.382-0.198-8.545-0.397-12.51c-0.179-3.965-0.416-7.375-0.734-10.27    c-0.198-1.705-1.923-2.954-5.135-3.767c-3.232-0.813-6.78-1.17-10.607-1.051c-3.846,0.119-7.375,0.734-10.607,1.804    c-3.232,1.09-4.937,2.676-5.155,4.738c-0.198,2.518-0.099,7.514,0.297,14.968c0.377,7.455,0.952,15.206,1.725,23.256    c0.773,8.069,1.665,15.326,2.696,21.789c1.031,6.483,2.102,9.972,3.192,10.488c2.439,1.11,6.543,1.527,12.312,1.249    c5.749-0.297,8.961-1.11,9.596-2.438c0.456-0.714,0.853-2.597,1.229-5.65c0.377-3.053,0.694-6.8,0.971-11.261    c1.864-0.238,3.767-0.496,5.73-0.793c1.963-0.277,3.886-0.615,5.789-0.991c0.436,4.897,0.932,9.04,1.467,12.47    c0.555,3.41,1.09,5.472,1.646,6.186c0.714,1.328,3.945,2.121,9.695,2.359c5.769,0.258,9.834-0.179,12.213-1.348    c1.011-0.496,1.903-3.985,2.677-10.448c0.753-6.443,1.348-13.72,1.784-21.788c0.416-8.069,0.674-15.821,0.753-23.276    c0.099-7.475-0.04-12.451-0.377-14.969C87.697,33.86,85.893,32.274,82.621,31.204z"/>
		<path class="st1" d="M254.355,30.192c-4.918-0.307-11.202-0.503-18.851-0.589c-7.651-0.084-15.18-0.033-22.591,0.154    c-7.409,0.188-13.966,0.521-19.67,0.999c-5.702,0.478-9.048,1.11-10.04,1.895c-0.682,0.376-1.117,1.785-1.305,4.225    c-0.187,2.442-0.212,5.175-0.077,8.196c0.135,3.023,0.427,5.977,0.872,8.863c0.442,2.886,0.989,4.977,1.639,6.274    c0.375,0.82,2.389,1.443,6.043,1.869c3.655,0.428,8.008,0.692,13.063,0.794c0.58,9.665,1.425,19.218,2.536,28.66    c1.109,9.443,2.364,14.47,3.765,15.085c1.33,0.581,3.294,0.973,5.89,1.178c2.594,0.205,5.215,0.256,7.863,0.154    c2.646-0.103,5.028-0.359,7.146-0.768c2.117-0.41,3.362-0.956,3.738-1.639c0.99-1.297,1.794-6.411,2.409-15.341    s0.972-18.211,1.075-27.841c3.586-0.136,6.812-0.299,9.68-0.487c2.869-0.186,4.953-0.384,6.252-0.589    c1.399-0.102,2.586-1.758,3.559-4.969c0.974-3.21,1.563-6.727,1.769-10.552c0.205-3.824-0.052-7.341-0.77-10.552    C257.634,32.003,256.302,30.33,254.355,30.192z"/>
		<path class="st1" d="M140.998,48.203c-12.174-3.156,7.558-32.802,2.352-31.218c-19.595,5.962-39.82,26.062-41.314,50.428    c-0.582,9.494,0.545,17.947,6.179,25.672c5.634,7.724,13.358,12.404,23.172,14.039c10.178,1.696,19.105-0.378,26.785-6.224    c7.678-5.846,12.306-13.54,13.88-23.082c1.728-10.632-1.084-19.288-6.747-27.262C137.572,11.506,157.098,52.376,140.998,48.203z     M145.974,73.956c-0.334,1.969-1.198,3.666-2.591,5.089c-1.394,1.424-3.136,2.242-5.224,2.454    c-3.03,0.363-5.574-0.538-7.633-2.704c-2.061-2.165-2.848-4.657-2.363-7.474c0.364-2.332,1.514-4.263,3.453-5.794    c1.938-1.528,4.18-2.081,6.725-1.658c2.695,0.454,4.747,1.598,6.155,3.431C145.905,69.133,146.397,71.351,145.974,73.956z"/>
	</g>
</g>
</svg>